<?xml version="1.0" encoding="utf-8"?>
<!-- Generator: Adobe Illustrator 28.2.0, SVG Export Plug-In . SVG Version: 6.00 Build 0)  -->
<svg version="1.1" id="Warstwa_1" xmlns="http://www.w3.org/2000/svg" xmlns:xlink="http://www.w3.org/1999/xlink" x="0px" y="0px"
	 viewBox="0 0 595.3 841.9" style="enable-background:new 0 0 595.3 841.9;" xml:space="preserve">
<style type="text/css">
	.st0{fill:#2A3178;}
	.st1{fill:#D7D8D9;}
	.st2{fill:#E97622;}
	.st3{fill:#8B466A;}
	.st4{fill:#DD494B;}
	.st5{fill:#0FAA9C;}
	.st6{fill:#D9D7D6;}
</style>
<g>
	<path class="st0" d="M435.4,365.2c0,0.5-0.3,0.6-0.6,0.7c-0.4,0.2-0.8,0.2-1.2-0.2c-0.6-0.6-1.2-1.2-1.7-1.9
		c-0.5-0.6-0.4-1.2,0.2-1.6c0.6-0.4,1,0.1,1.3,0.6c0.3,0.8,0.7,1.5,1.6,1.9C435.1,364.8,435.3,365.1,435.4,365.2z"/>
	<path class="st0" d="M209.3,475.7c-0.1,0.2-0.2,0.5-0.3,0.7c-0.4,0.5-0.4,1.6-1.2,1.2c-0.4-0.2-0.8-1.5-0.5-1.9
		C207.8,474.4,208.6,475.6,209.3,475.7C209.3,475.7,209.3,475.7,209.3,475.7z"/>
	<path class="st0" d="M392,486.6c0-0.8,0.1-1.3,1-1.3c0.5,0,0.9,0.3,0.7,0.8c-0.2,0.7-0.4,1.4-1.2,1.5
		C391.8,487.8,392.1,487,392,486.6z"/>
	<path class="st0" d="M168.4,386.4c0.1-0.5-0.1-1.1,0.6-0.9c0.6,0.2,0.8,0.9,0.9,1.5c0,0.4-0.1,1-0.6,1
		C168.4,387.8,168.5,386.9,168.4,386.4z"/>
	<path class="st0" d="M428.1,338.9c-0.5,0-0.9-0.2-0.9-0.7c0-0.5,0.5-0.7,0.9-0.7c0.4,0,0.9,0.1,0.9,0.7
		C429,338.7,428.4,338.8,428.1,338.9z"/>
	<path class="st0" d="M330.2,252.8c0,0.5-0.3,0.8-0.8,0.8c-0.4,0.1-0.8,0-0.8-0.5c0-0.6,0.5-0.8,1-0.9
		C329.9,252.2,330.1,252.4,330.2,252.8z"/>
	<path class="st0" d="M176.6,341.6c-0.8-0.2-1.6-0.3-1.8-1.3c0-0.2,0.2-0.5,0.4-0.5C176.1,340.1,176.4,340.8,176.6,341.6
		C176.6,341.6,176.6,341.6,176.6,341.6z"/>
	<path class="st0" d="M260.6,517.6c-0.6,0.8-1.2,1.1-1.9,0.7c-0.1-0.1-0.2-0.4-0.1-0.5C259.1,517.1,259.8,517.4,260.6,517.6z"/>
	<path class="st0" d="M425,331.4c-0.1,0.5-0.5,0.7-0.9,0.8c-0.4,0.1-0.7-0.2-0.7-0.6c0-0.4,0.4-0.6,0.8-0.6
		C424.6,330.8,425,330.9,425,331.4z"/>
	<path class="st0" d="M420.4,321.7c0.6,0,0.7,0.4,0.7,0.7c0,0.4,0,0.8-0.6,0.7c-0.4-0.1-0.7-0.4-0.7-0.8
		C419.7,321.9,420.1,321.8,420.4,321.7z"/>
	<path class="st0" d="M170.5,390.8c-0.1,0.4-0.3,0.6-0.6,0.6c-0.5-0.1-0.9-0.4-1-0.9c0-0.3,0.3-0.4,0.5-0.4
		C170,390.2,170.4,390.4,170.5,390.8z"/>
	<path class="st0" d="M190.9,456.5c-0.3-0.1-0.5-0.3-0.5-0.6c0-0.3,0.2-0.6,0.5-0.6c0.4,0,0.5,0.3,0.5,0.6
		C191.4,456.3,191.3,456.5,190.9,456.5z"/>
	<path class="st0" d="M173.7,345.1c-0.4-0.1-0.4-0.4-0.4-0.7c0-0.3,0-0.7,0.4-0.7c0.4-0.1,0.6,0.2,0.6,0.5
		C174.2,344.6,174,344.9,173.7,345.1z"/>
	<path class="st0" d="M211.8,488.8c0.4,0,0.7,0.2,0.8,0.6c0.1,0.4-0.1,0.6-0.4,0.6c-0.4-0.1-0.6-0.4-0.7-0.7
		C211.3,489,211.5,488.8,211.8,488.8z"/>
	<path class="st0" d="M207,478.7c0,0.3-0.2,0.6-0.6,0.5c-0.3,0-0.4-0.2-0.4-0.5c0-0.3,0.2-0.6,0.5-0.6
		C207,478.1,207.1,478.4,207,478.7z"/>
	<path class="st0" d="M410.6,303.3c0,0.2-0.1,0.5-0.4,0.5c-0.3,0-0.5-0.3-0.5-0.6c0-0.4,0.2-0.6,0.5-0.5
		C410.5,302.7,410.6,303,410.6,303.3z"/>
	<path class="st0" d="M349,259.2c0,0.3-0.3,0.4-0.5,0.4c-0.3,0-0.6-0.2-0.6-0.6c0-0.3,0.2-0.4,0.5-0.3
		C348.8,258.7,349,258.9,349,259.2z"/>
	<path class="st0" d="M175.7,346.5c-0.6,0.4-1,0.4-1.5-0.1C174.7,345.9,175.2,346,175.7,346.5z"/>
	<path class="st0" d="M186.6,316.7c-0.9,0.4-1.3,0.1-1.7-0.5C185.6,315.9,186,316.2,186.6,316.7z"/>
	<path class="st0" d="M266.9,521.3c-0.1,0.1-0.2,0.3-0.3,0.3c-0.4,0-0.5-0.3-0.5-0.6c-0.1-0.3,0.1-0.5,0.4-0.4
		C266.8,520.6,266.9,520.9,266.9,521.3z"/>
	<path class="st0" d="M213,485.8c-0.4,0.1-0.6,0.2-0.8,0.2c-0.2,0-0.5-0.2-0.3-0.4c0.1-0.1,0.4-0.2,0.6-0.2
		C212.6,485.4,212.7,485.6,213,485.8z"/>
	<path class="st0" d="M333,524.3c-0.2,0-0.4-0.1-0.4-0.3c0-0.2,0.2-0.3,0.3-0.4c0.1,0,0.4,0.1,0.4,0.1
		C333.5,524,333.3,524.2,333,524.3z"/>
	<path class="st0" d="M172.1,410.5c-0.1,0.2-0.2,0.3-0.3,0.5c-0.1-0.1-0.3-0.2-0.3-0.3c0-0.1,0.1-0.3,0.1-0.3
		C171.8,410.4,171.9,410.5,172.1,410.5z"/>
	<path class="st0" d="M423,440.4c-0.1,0-0.3,0.2-0.4,0.1c-0.1,0-0.1-0.2-0.2-0.4c0.1,0,0.2-0.1,0.3-0.1
		C422.9,440,423.1,440.1,423,440.4z"/>
	<path class="st0" d="M178.4,333.6c-0.1,0.1-0.2,0.2-0.3,0.3c-0.1-0.1-0.2-0.2-0.3-0.4c0-0.1,0.1-0.3,0.2-0.3
		C178.2,333.2,178.3,333.3,178.4,333.6z"/>
	<path class="st0" d="M310.1,524.3c-0.1,0.1-0.2,0.2-0.3,0.3c-0.1-0.1-0.2-0.3-0.2-0.4c0-0.1,0.1-0.2,0.2-0.2
		C310,523.9,310.1,524,310.1,524.3z"/>
	<path class="st0" d="M413.2,310.9c0.1,0.1,0.1,0.1,0.2,0.2c-0.1,0.1-0.2,0.1-0.2,0.2c0,0-0.1-0.1-0.1-0.1
		C413.1,311,413.1,310.9,413.2,310.9z"/>
	<path class="st0" d="M359.3,263.9c-0.1-0.1-0.2-0.1-0.2-0.2c0.1-0.1,0.1-0.1,0.2-0.2c0,0,0.1,0.1,0.1,0.1
		C359.4,263.8,359.4,263.9,359.3,263.9z"/>
	<path class="st0" d="M172.5,401.5c-0.1,0.2-0.2,0.4-0.3,0.5c-0.1-0.1-0.1-0.1-0.2-0.2C172.1,401.8,172.3,401.7,172.5,401.5
		C172.5,401.5,172.5,401.5,172.5,401.5z"/>
	<path class="st0" d="M361,262.2c-0.1,0.1-0.1,0.2-0.2,0.2c-0.1-0.1-0.1-0.1-0.2-0.2c0,0,0.1-0.1,0.1-0.1
		C360.8,262.1,360.9,262.2,361,262.2z"/>
	<path class="st0" d="M174.5,404.1c-0.1,0.1-0.1,0.1-0.2,0.2c0-0.1-0.1-0.2-0.1-0.3c0,0,0.1-0.1,0.1-0.1
		C174.4,404,174.5,404.1,174.5,404.1z"/>
	<path class="st0" d="M420.9,325.1c-0.1,0.1-0.1,0.2-0.2,0.2c-0.1-0.1-0.1-0.1-0.2-0.2c0,0,0.1-0.1,0.1-0.1
		C420.7,325.1,420.8,325.1,420.9,325.1z"/>
	<path class="st0" d="M182,441.7c-0.1,0.1-0.1,0.1-0.2,0.2c0-0.1-0.1-0.2-0.1-0.3c0,0,0.1-0.1,0.1-0.1
		C181.8,441.6,181.9,441.7,182,441.7z"/>
	<path class="st0" d="M182.8,321.1c-0.1,0.1-0.2,0.1-0.2,0.2c-0.1-0.1-0.1-0.2-0.2-0.2c0,0,0.1-0.1,0.1-0.1
		C182.6,321,182.6,321,182.8,321.1z"/>
	<path class="st0" d="M273.1,523c0.1-0.1,0.2-0.1,0.2-0.2c0.1,0.1,0.1,0.2,0.2,0.2c0,0-0.1,0.1-0.1,0.1
		C273.3,523.1,273.2,523,273.1,523z"/>
	<path class="st0" d="M182.7,314.9c-0.1,0-0.2,0-0.3,0c0-0.1,0-0.2,0-0.3c0,0,0.1,0,0.1,0C182.7,314.7,182.7,314.8,182.7,314.9z"/>
	<path class="st1" d="M400.7,473.6c0.6-0.1,0.6,0.4,0.6,0.7c0,0.9-0.4,1.6-1.2,1.9c-0.5,0.2-0.9-0.2-0.9-0.7
		C399.2,474.6,400.1,474.2,400.7,473.6z"/>
	<path class="st1" d="M307.9,247.4c0,0.1,0,0.2,0.1,0.4c0.2,0.8,0.7,1.7-0.5,2.1c-0.6,0.2-0.9-0.1-1-0.7
		C306.4,248.1,306.7,247.3,307.9,247.4C307.9,247.4,307.9,247.4,307.9,247.4z"/>
	<path class="st1" d="M357.5,509.2c0.7,0.1,1,0.5,0.9,1c0,0.8-0.5,1.1-1.2,1.1c-0.5,0-1-0.3-0.9-0.9
		C356.5,509.7,357,509.4,357.5,509.2z"/>
	<path class="st1" d="M393.6,478.6c-0.6-0.1-1.4-0.1-1.5-1c0-0.4,0.4-0.5,0.7-0.4c0.6,0.3,1.6-0.1,1.9,0.7
		C394.9,478.5,394.1,478.6,393.6,478.6z"/>
	<path class="st1" d="M415.6,458.2c-1,0.3-1.6,0.4-2.1,0.6c-0.4,0.1-0.9,0.6-1.1,0.1c-0.3-0.6,0.4-0.8,0.8-1
		C413.8,457.7,414.5,457.6,415.6,458.2z"/>
	<path class="st1" d="M230.9,496c-0.4-0.1-0.7-0.3-0.7-0.7c0-0.6,0.3-0.9,0.9-0.9c0.4,0,0.7,0.3,0.7,0.7
		C231.8,495.6,231.4,495.9,230.9,496z"/>
	<path class="st1" d="M197.4,306.9c0,0.7-0.3,1.2-0.9,1.3c-0.4,0.1-0.5-0.2-0.5-0.5c0-0.6,0.2-1.1,0.8-1.3
		C197.2,306.2,197.3,306.6,197.4,306.9z"/>
	<path class="st1" d="M300,248.1c0.4,0,0.8,0.1,0.7,0.6c-0.1,0.6-0.6,0.7-1.1,0.8c-0.5,0-0.6-0.3-0.6-0.7
		C299.1,248.2,299.5,248.1,300,248.1z"/>
	<path class="st1" d="M360.4,508.5c0,0.5-0.1,0.9-0.7,1c-0.4,0-0.7-0.2-0.7-0.6c0.1-0.5,0.4-0.9,0.9-0.9
		C360.3,507.9,360.3,508.3,360.4,508.5z"/>
	<path class="st1" d="M223.4,280.1c0,0.5-0.1,0.9-0.6,0.9c-0.4,0.1-0.7-0.2-0.7-0.6c-0.1-0.5,0.2-0.8,0.7-0.9
		C223.2,279.4,223.4,279.7,223.4,280.1z"/>
	<path class="st1" d="M398.7,478.4c0,0.4-0.3,0.9-0.8,0.9c-0.3,0-0.6-0.2-0.5-0.6c0.1-0.5,0.2-1,0.8-1
		C398.5,477.6,398.7,477.9,398.7,478.4z"/>
	<path class="st1" d="M286.4,518.3c0.4,0.1,0.6,0.4,0.6,0.8c0,0.4-0.2,0.8-0.7,0.7c-0.5-0.1-0.6-0.6-0.6-1
		C285.8,518.4,286.1,518.2,286.4,518.3z"/>
	<path class="st1" d="M316.2,254.3c-0.4,0-0.6-0.2-0.6-0.5c0-0.5,0.4-0.7,0.8-0.8c0.3,0,0.7,0.1,0.7,0.4
		C317,253.9,316.6,254.2,316.2,254.3z"/>
	<path class="st1" d="M308.3,250.8c0.4,0,0.6,0.1,0.6,0.5c0.1,0.4,0,0.8-0.5,0.8c-0.3,0-0.6-0.2-0.7-0.5
		C307.6,251.2,307.9,250.9,308.3,250.8z"/>
	<path class="st1" d="M433,398.2c0.3,0.1,0.6,0.3,0.4,0.6c-0.1,0.4-0.3,0.7-0.8,0.7c-0.4,0-0.5-0.4-0.4-0.7
		C432.3,398.4,432.6,398.2,433,398.2z"/>
	<path class="st1" d="M429.8,412.6c-0.2-0.9,0-1.3,0.6-1.6c0.1,0,0.4,0.1,0.4,0.2C431.1,411.9,430.5,412.2,429.8,412.6z"/>
	<path class="st1" d="M292.6,519.7c0.4,0.1,0.7,0.4,0.7,0.8c0,0.3-0.3,0.5-0.6,0.4c-0.4-0.1-0.6-0.3-0.6-0.7
		C292,519.9,292.2,519.7,292.6,519.7z"/>
	<path class="st1" d="M351.6,510.7c0.3,0,0.6,0.2,0.5,0.6c0,0.4-0.3,0.7-0.7,0.6c-0.3,0-0.5-0.2-0.5-0.6
		C350.9,511,351.2,510.8,351.6,510.7z"/>
	<path class="st1" d="M273.6,255.4c0.6,0.3,1,0.7,1,1.4c0,0.1-0.3,0.2-0.4,0.2C273.5,256.6,273.3,256.1,273.6,255.4z"/>
	<path class="st1" d="M305.6,250.9c-0.4,0-0.6-0.2-0.6-0.5c0-0.3,0.1-0.6,0.4-0.7c0.4-0.1,0.5,0.2,0.6,0.5
		C306,250.6,305.9,250.9,305.6,250.9z"/>
	<path class="st1" d="M429.6,416.8c0,0.2-0.1,0.5-0.4,0.5c-0.3,0-0.6-0.2-0.5-0.5c0-0.2,0.2-0.5,0.4-0.5
		C429.4,416.2,429.5,416.5,429.6,416.8z"/>
	<path class="st1" d="M348,511.2c0,0.3-0.1,0.5-0.4,0.5c-0.3,0-0.5-0.1-0.5-0.4c0-0.3,0.1-0.5,0.4-0.5
		C347.8,510.8,348,510.9,348,511.2z"/>
	<path class="st1" d="M225.6,277.8c-0.3,0-0.5-0.1-0.5-0.4c0-0.3,0.1-0.5,0.4-0.5c0.3,0,0.5,0.1,0.5,0.4
		C226,277.5,225.9,277.7,225.6,277.8z"/>
	<path class="st1" d="M402.7,472.8c0,0.3-0.2,0.5-0.4,0.5c-0.3,0-0.4-0.2-0.4-0.4c0-0.3,0.3-0.4,0.5-0.4
		C402.5,472.5,402.6,472.7,402.7,472.8z"/>
	<path class="st1" d="M397.3,292c0,0.3-0.3,0.4-0.5,0.3c-0.2,0-0.4-0.1-0.4-0.2c-0.1-0.3,0.1-0.4,0.4-0.4
		C397,291.7,397.3,291.8,397.3,292z"/>
	<path class="st1" d="M289,521.5c0.1-0.3-0.1-0.8,0.4-0.9c0.1,0,0.2,0.1,0.2,0.2C289.7,521.3,289.3,521.4,289,521.5
		C289,521.5,289,521.5,289,521.5z"/>
	<path class="st1" d="M269.8,254.8c-0.1,0.1-0.1,0.2-0.2,0.2c-0.1-0.1-0.1-0.1-0.2-0.2c0,0,0.1-0.1,0.1-0.1
		C269.6,254.7,269.7,254.7,269.8,254.8z"/>
	<path class="st1" d="M302.3,250.2c0.1,0.1,0.1,0.1,0.2,0.2c-0.1,0-0.2,0.1-0.3,0.1c0,0-0.1-0.1-0.1-0.1
		C302.2,250.3,302.3,250.2,302.3,250.2z"/>
	<path class="st1" d="M217.9,443.4c-0.2-0.1-0.4-0.3-0.6-0.4C217.5,443.1,217.7,443.3,217.9,443.4z"/>
	<path class="st0" d="M160.9,297.5c0.4-0.4,0.8-0.3,1.1-0.2c0.6,0.2,0.9,0.5,0.9,1.1c0,1,0.1,2.1,0.1,3.1c0,0.9-0.6,1.4-1.5,1.3
		c-0.9-0.1-0.9-0.9-0.7-1.6c0.3-1,0.6-2,0.1-3C160.8,298.1,160.9,297.7,160.9,297.5z"/>
	<path class="st0" d="M458.7,379c0.3-0.1,0.5-0.3,0.8-0.3c0.7-0.1,1.7-1.2,2.1-0.2c0.2,0.5-0.5,2-1.1,2.2
		C459.1,381.4,459.3,379.7,458.7,379C458.7,379,458.7,379,458.7,379z"/>
	<path class="st0" d="M299.2,220.8c-0.6,0.7-1.2,1.1-1.9,0.4c-0.5-0.4-0.6-0.9,0-1.3c0.7-0.5,1.6-1,2.3-0.4
		C300.4,219.9,299.4,220.4,299.2,220.8z"/>
	<path class="st0" d="M424.1,494.5c-0.5,0.3-0.9,1.1-1.3,0.4c-0.4-0.7,0-1.5,0.4-2.1c0.3-0.5,0.9-0.9,1.3-0.4
		C425.2,493.2,424.4,493.9,424.1,494.5z"/>
	<path class="st0" d="M146.3,327.7c0.4,0.4,0.7,0.9,0.2,1.4c-0.5,0.5-1,0.2-1.4-0.1c-0.4-0.4-0.8-0.9-0.3-1.3
		C145.3,327.1,145.8,327.5,146.3,327.7z"/>
	<path class="st0" d="M166.7,486.4c0.4-0.4,0.9-0.4,1.4-0.1c0.4,0.3,0.7,0.7,0.4,1.1c-0.5,0.6-1.1,0.3-1.6,0
		C166.5,487.2,166.5,486.8,166.7,486.4z"/>
	<path class="st0" d="M380.2,529.1c0.6,0.8,1.2,1.6,0.6,2.6c-0.2,0.3-0.6,0.4-0.8,0.1C379.4,530.9,379.7,530,380.2,529.1
		C380.2,529.1,380.2,529.1,380.2,529.1z"/>
	<path class="st0" d="M445.4,298.8c1.2-0.3,1.9,0,2.3,0.9c0.1,0.1-0.1,0.5-0.3,0.5C446.4,300.5,446.1,299.7,445.4,298.8z"/>
	<path class="st0" d="M143,337.1c0.5-0.4,1-0.3,1.4,0c0.4,0.3,0.5,0.8,0.1,1.1c-0.4,0.4-0.8,0.2-1.2,0
		C142.9,338,142.6,337.6,143,337.1z"/>
	<path class="st0" d="M139.4,349.8c-0.6-0.5-0.3-0.9,0-1.2c0.3-0.3,0.7-0.8,1.1-0.2c0.3,0.4,0.3,0.9,0.1,1.3
		C140.2,350.2,139.7,349.9,139.4,349.8z"/>
	<path class="st0" d="M425.7,488.6c0.4-0.3,0.8-0.4,1,0c0.4,0.5,0.5,1.1,0.1,1.6c-0.2,0.3-0.6,0.2-0.7-0.1
		C425.7,489.7,425.5,489.2,425.7,488.6z"/>
	<path class="st0" d="M460.2,411.6c0.2,0.3,0.2,0.7-0.1,1c-0.3,0.3-0.6,0.4-1,0.1c-0.3-0.3-0.2-0.7,0.1-1
		C459.5,411.4,459.8,411.3,460.2,411.6z"/>
	<path class="st0" d="M385.7,528.3c0.3,0.4,0.1,0.7-0.2,1c-0.2,0.3-0.5,0.6-0.9,0.4c-0.4-0.2-0.4-0.6-0.1-1
		C384.8,528.3,385.2,528.1,385.7,528.3z"/>
	<path class="st0" d="M467.1,364.9c-0.3-0.4-0.4-0.8-0.2-1.2c0.2-0.4,0.6-0.5,0.9-0.2c0.3,0.4,0.3,0.9,0.1,1.3
		C467.7,365.1,467.3,365.1,467.1,364.9z"/>
	<path class="st0" d="M463.3,378.1c0.3-0.3,0.6-0.4,1,0c0.3,0.3,0.2,0.5,0,0.8c-0.3,0.3-0.7,0.4-1,0.2
		C462.8,378.7,463,378.4,463.3,378.1z"/>
	<path class="st0" d="M133.5,374.7c0.2-0.2,0.5-0.4,0.8-0.1c0.3,0.3,0.3,0.7,0,1c-0.3,0.4-0.6,0.4-0.9,0.1
		C133.1,375.4,133.3,375,133.5,374.7z"/>
	<path class="st0" d="M154.5,465.2c0.3-0.3,0.6-0.1,0.8,0.1c0.3,0.3,0.3,0.7,0.1,1c-0.3,0.3-0.5,0.2-0.7-0.1
		C154.3,465.9,154.3,465.6,154.5,465.2z"/>
	<path class="st0" d="M385,525.3c0.8,0.1,1.3,0.4,1.3,1.3C385.4,526.6,385,526.2,385,525.3z"/>
	<path class="st0" d="M350.8,543.9c1.1,0.4,1.3,0.9,1.1,1.8C351.1,545.5,351,544.9,350.8,543.9z"/>
	<path class="st0" d="M442.6,290.3c0.1,0,0.4-0.1,0.5,0c0.3,0.3,0.2,0.7,0,1c-0.2,0.3-0.5,0.4-0.7,0.1
		C442.2,291,442.3,290.6,442.6,290.3z"/>
	<path class="st0" d="M463.6,366.7c0.4,0.2,0.7,0.3,0.8,0.5c0.2,0.2,0.3,0.6-0.1,0.7c-0.2,0-0.5-0.2-0.7-0.4
		C463.6,367.3,463.6,367.1,463.6,366.7z"/>
	<path class="st0" d="M384.1,233.9c0.2,0.2,0.3,0.4,0.1,0.6c-0.2,0.1-0.4,0.2-0.6,0.1c-0.1,0-0.3-0.4-0.3-0.5
		C383.5,233.8,383.8,233.8,384.1,233.9z"/>
	<path class="st0" d="M440.2,469.2c0.3-0.1,0.5-0.1,0.7-0.2c0,0.2,0.1,0.4,0,0.6c0,0.1-0.3,0.2-0.4,0.1
		C440.4,469.6,440.3,469.4,440.2,469.2z"/>
	<path class="st0" d="M233.2,238.3c0.2,0.1,0.4,0.1,0.5,0.2c0.1,0.1-0.1,0.3-0.1,0.5c-0.1,0-0.3,0-0.4-0.1
		C232.9,238.7,232.9,238.5,233.2,238.3z"/>
	<path class="st0" d="M372.1,535c0.1,0,0.3,0,0.5,0c0,0.2,0,0.4-0.1,0.6c0,0.1-0.3,0.2-0.4,0.1C371.9,535.5,371.9,535.3,372.1,535z"
		/>
	<path class="st0" d="M405.3,252.5c0.1,0,0.3,0,0.5,0c0,0.2,0,0.4-0.1,0.6c0,0.1-0.3,0.1-0.4,0.1C405.1,253,405.1,252.8,405.3,252.5
		z"/>
	<path class="st0" d="M137.2,365.6c0-0.1,0-0.2,0-0.4c0.1,0,0.2,0,0.4,0.1c0,0,0,0.2,0,0.2C137.5,365.6,137.4,365.6,137.2,365.6z"/>
	<path class="st0" d="M148.8,452.5c0,0.1,0,0.2,0.1,0.4c-0.1,0-0.2,0-0.4,0c0,0-0.1-0.2,0-0.2C148.6,452.6,148.7,452.6,148.8,452.5z
		"/>
	<path class="st0" d="M432.6,477.2c0.2-0.1,0.5-0.1,0.7-0.2c0,0.1,0,0.2,0,0.3C433.1,477.3,432.8,477.2,432.6,477.2
		C432.6,477.2,432.6,477.2,432.6,477.2z"/>
	<path class="st0" d="M145.9,452.8c0.1,0,0.2,0,0.4-0.1c0,0.1,0,0.2,0,0.4c0,0-0.2,0.1-0.2,0C146,453,146,452.9,145.9,452.8z"/>
	<path class="st0" d="M432.8,473.1c0.1,0,0.2,0,0.4,0c0,0.1,0,0.2-0.1,0.4c0,0-0.2,0-0.2,0C432.8,473.4,432.8,473.3,432.8,473.1z"/>
	<path class="st0" d="M141.8,346.2c0.1,0,0.2,0,0.4-0.1c0,0.1,0,0.2,0,0.4c0,0-0.2,0.1-0.2,0C141.8,346.5,141.8,346.3,141.8,346.2z"
		/>
	<path class="st0" d="M456.4,432.4c0.1,0,0.2,0,0.4,0c0,0.1,0,0.2-0.1,0.4c0,0-0.2,0-0.2,0C456.5,432.7,456.4,432.6,456.4,432.4z"/>
	<path class="st0" d="M357.9,543c0.1,0,0.2,0,0.4,0c0,0.1,0,0.2-0.1,0.3c0,0-0.2,0-0.2,0C358,543.3,357.9,543.2,357.9,543z"/>
	<path class="st0" d="M438.3,283.7c-0.1,0-0.2,0-0.4,0c0-0.1,0-0.2,0.1-0.4c0,0,0.2,0,0.2,0C438.2,283.4,438.2,283.6,438.3,283.7z"
		/>
	<path class="st0" d="M352.9,548.8c0.1,0.1,0.2,0.1,0.3,0.2c-0.1,0.1-0.2,0.2-0.3,0.2c0,0-0.2-0.1-0.2-0.1
		C352.8,549,352.8,548.9,352.9,548.8z"/>
	<path class="st1" d="M280.7,225.8c-0.6-0.5-0.3-0.9,0-1.2c0.7-0.8,1.7-1.1,2.7-0.7c0.6,0.2,0.6,0.9,0.2,1.4
		C282.8,226.1,281.7,225.8,280.7,225.8z"/>
	<path class="st1" d="M182.8,509.5c0.1-0.1,0.2-0.3,0.2-0.4c0.5-0.9,0.7-2.2,2.2-1.6c0.7,0.3,0.8,0.9,0.3,1.5
		C184.8,510.1,183.9,510.5,182.8,509.5C182.8,509.5,182.8,509.5,182.8,509.5z"/>
	<path class="st1" d="M349.3,227.9c-0.5-0.7-0.5-1.2,0-1.7c0.6-0.7,1.3-0.7,2,0c0.5,0.5,0.6,1.1,0.1,1.6
		C350.7,228.4,350,228.2,349.3,227.9z"/>
	<path class="st1" d="M291.3,226.9c0.5,0.6,1.2,1.2,0.6,2.1c-0.3,0.4-0.8,0.2-0.9-0.2c-0.3-0.8-1.6-1.2-1.2-2.2
		C290,225.9,290.8,226.5,291.3,226.9z"/>
	<path class="st1" d="M254.5,227.9c1.1,0.5,1.8,0.9,2.4,1.2c0.4,0.2,1.3,0.2,1.1,0.9c-0.2,0.8-1,0.5-1.5,0.2
		C255.8,229.8,255,229.3,254.5,227.9z"/>
	<path class="st1" d="M455.3,342.8c0.4,0.4,0.3,0.9,0,1.2c-0.5,0.5-1,0.6-1.6,0.1c-0.4-0.3-0.5-0.8-0.1-1.2
		C454.1,342.4,454.7,342.5,455.3,342.8z"/>
	<path class="st1" d="M332.9,544.2c0.6-0.6,1.3-0.8,1.9-0.5c0.4,0.2,0.3,0.6,0,0.9c-0.5,0.5-1.1,0.9-1.8,0.6
		C332.5,545,332.8,544.5,332.9,544.2z"/>
	<path class="st1" d="M190.7,515.2c-0.3-0.3-0.6-0.7-0.2-1.1c0.5-0.5,1.1-0.2,1.6,0.2c0.4,0.3,0.3,0.8,0,1.1
		C191.6,515.8,191.1,515.5,190.7,515.2z"/>
	<path class="st1" d="M346.1,226.3c0.5-0.5,0.9-0.8,1.4-0.3c0.4,0.3,0.5,0.8,0.1,1.1c-0.5,0.4-1.1,0.5-1.6,0.1
		C345.7,226.9,346,226.5,346.1,226.3z"/>
	<path class="st1" d="M287.2,547.8c0.4-0.4,0.8-0.7,1.3-0.4c0.4,0.3,0.4,0.8,0.1,1.2c-0.3,0.5-0.8,0.6-1.3,0.3
		C286.8,548.6,286.9,548.2,287.2,547.8z"/>
	<path class="st1" d="M286.4,223c0.4-0.4,0.9-0.6,1.5-0.1c0.3,0.3,0.3,0.7,0,1c-0.5,0.4-1,0.7-1.6,0.3
		C286,223.8,286.1,223.4,286.4,223z"/>
	<path class="st1" d="M422.2,277.2c-0.3-0.4-0.2-0.9,0.1-1.2c0.3-0.3,0.8-0.5,1.2-0.1c0.4,0.5,0.1,1-0.3,1.4
		C422.9,277.6,422.5,277.6,422.2,277.2z"/>
	<path class="st1" d="M180.8,496.4c0.3,0.3,0.4,0.7,0.2,1c-0.4,0.5-0.9,0.4-1.4,0c-0.3-0.2-0.6-0.6-0.3-0.9
		C179.7,496.1,180.3,496.1,180.8,496.4z"/>
	<path class="st1" d="M185.2,506c-0.4-0.3-0.4-0.6-0.2-1c0.3-0.4,0.7-0.7,1.1-0.3c0.3,0.3,0.4,0.7,0.2,1
		C186.1,506.2,185.7,506.2,185.2,506z"/>
	<path class="st1" d="M189.8,269c-0.3-0.4-0.3-0.7,0.1-0.9c0.4-0.2,0.9-0.4,1.2,0c0.3,0.3,0.1,0.7-0.2,1
		C190.6,269.4,190.2,269.3,189.8,269z"/>
	<path class="st1" d="M204.4,258.4c-0.5,1-1.1,1.3-1.9,1c-0.1-0.1-0.3-0.4-0.2-0.5C202.7,258,203.4,258.2,204.4,258.4z"/>
	<path class="st1" d="M417.7,270.9c-0.3-0.4-0.4-0.9,0-1.3c0.3-0.3,0.7-0.2,0.9,0.1c0.3,0.4,0.3,0.8,0,1.2
		C418.4,271.2,418,271.2,417.7,270.9z"/>
	<path class="st1" d="M356,231.4c-0.3-0.3-0.3-0.7,0-1c0.4-0.3,0.8-0.4,1.2,0c0.3,0.3,0.3,0.7,0,1
		C356.9,231.7,356.4,231.6,356,231.4z"/>
	<path class="st1" d="M220.9,529.9c-0.4-0.8-0.4-1.5,0.2-2.1c0.1-0.1,0.5,0.1,0.6,0.2C222,528.8,221.8,529.5,220.9,529.9z"/>
	<path class="st1" d="M187.8,508c0.4,0.3,0.4,0.7,0.1,1c-0.2,0.3-0.6,0.5-0.9,0.3c-0.4-0.3-0.3-0.6-0.1-0.9
		C187.1,508,187.4,507.8,187.8,508z"/>
	<path class="st1" d="M208.1,254.7c0.2-0.2,0.5-0.4,0.8-0.2c0.3,0.3,0.4,0.7,0,0.9c-0.2,0.2-0.6,0.2-0.8,0.1
		C207.7,255.4,207.8,255,208.1,254.7z"/>
	<path class="st1" d="M359.7,233.9c0.2-0.2,0.5-0.4,0.8-0.1c0.2,0.2,0.4,0.5,0.1,0.7c-0.2,0.2-0.5,0.4-0.7,0.1
		C359.6,234.4,359.5,234.2,359.7,233.9z"/>
	<path class="st1" d="M283.3,548.2c0.2,0.2,0.4,0.5,0.1,0.8c-0.2,0.2-0.5,0.4-0.7,0.1c-0.2-0.2-0.4-0.5-0.1-0.7
		C282.8,548.1,283,548,283.3,548.2z"/>
	<path class="st1" d="M278.2,224.9c0.3-0.3,0.6-0.4,0.8-0.2c0.3,0.2,0.3,0.5,0,0.7c-0.3,0.2-0.6,0.2-0.8-0.1
		C278.1,225.3,278.2,225,278.2,224.9z"/>
	<path class="st1" d="M136.6,395.8c0.3-0.3,0.5-0.1,0.7,0.1c0.1,0.1,0.3,0.4,0.2,0.5c-0.1,0.3-0.5,0.2-0.7,0.1
		C136.6,396.4,136.4,396.1,136.6,395.8z"/>
	<path class="st1" d="M422.5,272.3c-0.3,0.2-0.5,0.8-1.1,0.5c-0.1,0-0.1-0.3-0.1-0.4C421.7,271.8,422.1,272.1,422.5,272.3
		C422.5,272.3,422.5,272.3,422.5,272.3z"/>
	<path class="st1" d="M223.9,533.6c0.1,0,0.2,0,0.3-0.1c0,0.1,0,0.2,0,0.3c0,0-0.2,0.1-0.2,0C224,533.8,224,533.7,223.9,533.6z"/>
	<path class="st1" d="M190.2,511.4c0-0.1,0-0.2,0-0.4c0.1,0,0.2,0,0.4,0.1c0,0,0,0.2,0,0.2C190.4,511.4,190.3,511.4,190.2,511.4z"/>
	<path class="st1" d="M424.7,401.8c0.1,0.3,0.1,0.6,0.2,0.9C424.8,402.4,424.8,402.1,424.7,401.8z"/>
	<path class="st0" d="M221,334c0.2-0.2,0.4-0.2,0.6-0.1c0.3,0.1,0.5,0.3,0.5,0.6c0,0.6,0.1,1.1,0.1,1.7c0,0.5-0.3,0.8-0.8,0.7
		c-0.5-0.1-0.5-0.5-0.4-0.9c0.2-0.5,0.3-1.1,0-1.6C221,334.3,221,334.1,221,334z"/>
	<path class="st0" d="M384.4,384.3c0.1-0.1,0.3-0.1,0.4-0.2c0.4-0.1,0.9-0.6,1.1,0c0.1,0.3-0.2,1-0.5,1.2
		C384.7,385.6,384.8,384.7,384.4,384.3C384.4,384.3,384.4,384.3,384.4,384.3z"/>
	<path class="st0" d="M294.4,295.8c-0.3,0.4-0.6,0.6-1,0.1c-0.3-0.2-0.3-0.5,0-0.7c0.4-0.2,0.8-0.5,1.2-0.2
		C295,295.4,294.5,295.6,294.4,295.8z"/>
	<path class="st0" d="M368.2,445.6c-0.3,0.2-0.4,0.6-0.7,0.2c-0.2-0.4,0-0.8,0.2-1.1c0.2-0.2,0.5-0.4,0.7-0.2
		C368.7,444.9,368.3,445.3,368.2,445.6z"/>
	<path class="st0" d="M213.7,349.9c0.2,0.2,0.4,0.5,0.2,0.7c-0.2,0.2-0.5,0.1-0.8-0.1c-0.2-0.2-0.4-0.5-0.2-0.7
		C213.2,349.6,213.5,349.8,213.7,349.9z"/>
	<path class="st0" d="M228.3,435.6c0.2-0.2,0.5-0.2,0.8,0c0.2,0.1,0.4,0.4,0.2,0.6c-0.2,0.3-0.6,0.1-0.9,0
		C228.2,436,228.1,435.8,228.3,435.6z"/>
	<path class="st0" d="M345.1,463.2c0.3,0.4,0.7,0.9,0.4,1.4c-0.1,0.1-0.3,0.2-0.4,0C344.7,464.2,344.9,463.7,345.1,463.2
		C345.1,463.2,345.1,463.2,345.1,463.2z"/>
	<path class="st0" d="M375.5,340.9c0.7-0.1,1,0,1.2,0.5c0,0.1-0.1,0.3-0.1,0.3C376,341.9,375.8,341.4,375.5,340.9z"/>
	<path class="st0" d="M212.1,354.9c0.3-0.2,0.5-0.1,0.8,0c0.2,0.2,0.3,0.4,0.1,0.6c-0.2,0.2-0.5,0.1-0.7,0
		C212.1,355.4,212,355.2,212.1,354.9z"/>
	<path class="st0" d="M210.5,361.7c-0.4-0.3-0.2-0.5,0-0.6c0.2-0.2,0.3-0.4,0.6-0.1c0.2,0.2,0.2,0.5,0.1,0.7
		C210.9,361.9,210.6,361.7,210.5,361.7z"/>
	<path class="st0" d="M368.9,442.5c0.2-0.2,0.4-0.2,0.6,0c0.2,0.3,0.3,0.6,0.1,0.9c-0.1,0.2-0.3,0.1-0.4-0.1
		C368.9,443.1,368.8,442.8,368.9,442.5z"/>
	<path class="st0" d="M386,401.9c0.1,0.2,0.1,0.4,0,0.5c-0.1,0.2-0.3,0.2-0.5,0c-0.2-0.2-0.1-0.4,0-0.5
		C385.6,401.7,385.8,401.7,386,401.9z"/>
	<path class="st0" d="M348.1,462.9c0.2,0.2,0.1,0.4-0.1,0.5c-0.1,0.1-0.3,0.3-0.5,0.2c-0.2-0.1-0.2-0.3-0.1-0.5
		C347.6,462.9,347.8,462.8,348.1,462.9z"/>
	<path class="st0" d="M388.7,376.9c-0.2-0.2-0.3-0.4-0.1-0.7c0.1-0.2,0.3-0.3,0.5-0.1c0.2,0.2,0.2,0.5,0.1,0.7
		C389,377.1,388.8,377.1,388.7,376.9z"/>
	<path class="st0" d="M386.9,383.9c0.2-0.1,0.3-0.2,0.5,0c0.1,0.1,0.1,0.3,0,0.4c-0.1,0.2-0.4,0.2-0.5,0.1
		C386.7,384.3,386.8,384.1,386.9,383.9z"/>
	<path class="st0" d="M207.8,374.9c0.1-0.1,0.3-0.2,0.4,0c0.2,0.2,0.2,0.4,0,0.5c-0.1,0.2-0.3,0.2-0.5,0
		C207.6,375.2,207.7,375.1,207.8,374.9z"/>
	<path class="st0" d="M221.2,424c0.2-0.1,0.3-0.1,0.4,0.1c0.2,0.2,0.2,0.4,0.1,0.5c-0.1,0.2-0.3,0.1-0.4-0.1
		C221.1,424.3,221.1,424.2,221.2,424z"/>
	<path class="st0" d="M347.6,461.3c0.5,0.1,0.7,0.3,0.8,0.7C347.9,462,347.7,461.8,347.6,461.3z"/>
	<path class="st0" d="M329.4,470.5c0.6,0.2,0.7,0.5,0.7,1C329.7,471.4,329.6,471.1,329.4,470.5z"/>
	<path class="st0" d="M373.8,336.3c0.1,0,0.2,0,0.3,0c0.2,0.2,0.1,0.4,0,0.5c-0.1,0.2-0.2,0.2-0.4,0
		C373.6,336.7,373.6,336.5,373.8,336.3z"/>
	<path class="st0" d="M386.8,377.8c0.2,0.1,0.4,0.2,0.5,0.3c0.1,0.1,0.2,0.3,0,0.4c-0.1,0-0.3-0.1-0.4-0.2
		C386.8,378.1,386.9,378,386.8,377.8z"/>
	<path class="st0" d="M340.8,304.8c0.1,0.1,0.2,0.2,0.1,0.3c-0.1,0.1-0.2,0.1-0.3,0.1c-0.1,0-0.2-0.2-0.2-0.3
		C340.4,304.7,340.6,304.7,340.8,304.8z"/>
	<path class="st0" d="M376.4,432.4c0.2,0,0.3-0.1,0.4-0.1c0,0.1,0,0.2,0,0.3c0,0-0.2,0.1-0.2,0.1
		C376.5,432.6,376.4,432.5,376.4,432.4z"/>
	<path class="st0" d="M258.9,303.8c0.1,0,0.2,0.1,0.3,0.1c0,0.1,0,0.2-0.1,0.3c-0.1,0-0.2,0-0.2-0.1
		C258.8,304,258.8,303.9,258.9,303.8z"/>
	<path class="st0" d="M340.8,466.2c0.1,0,0.2,0,0.3,0c0,0.1,0,0.2,0,0.3c0,0-0.2,0.1-0.2,0.1C340.7,466.5,340.7,466.4,340.8,466.2z"
		/>
	<path class="st0" d="M352.7,315.2c0.1,0,0.2,0,0.3,0c0,0.1,0,0.2-0.1,0.3c0,0-0.2,0.1-0.2,0C352.6,315.4,352.6,315.3,352.7,315.2z"
		/>
	<path class="st0" d="M209.6,370.1c0-0.1,0-0.1,0-0.2c0.1,0,0.1,0,0.2,0c0,0,0,0.1,0,0.1C209.8,370.1,209.7,370.1,209.6,370.1z"/>
	<path class="st0" d="M217.8,417c0,0.1,0,0.1,0,0.2c-0.1,0-0.1,0-0.2,0c0,0,0-0.1,0-0.1C217.7,417.1,217.8,417,217.8,417z"/>
	<path class="st0" d="M372.4,436.5c0.1,0,0.3-0.1,0.4-0.1c0,0.1,0,0.1,0,0.2C372.7,436.5,372.5,436.5,372.4,436.5
		C372.4,436.5,372.4,436.5,372.4,436.5z"/>
	<path class="st0" d="M216.3,417.1c0.1,0,0.1,0,0.2,0c0,0.1,0,0.1,0,0.2c0,0-0.1,0-0.1,0C216.3,417.2,216.3,417.2,216.3,417.1z"/>
	<path class="st0" d="M372.4,434.3c0.1,0,0.1,0,0.2,0c0,0.1,0,0.1,0,0.2c0,0-0.1,0-0.1,0C372.4,434.4,372.4,434.4,372.4,434.3z"/>
	<path class="st0" d="M211.7,359.8c0.1,0,0.1,0,0.2,0c0,0.1,0,0.1,0,0.2c0,0-0.1,0-0.1,0C211.7,359.9,211.7,359.8,211.7,359.8z"/>
	<path class="st0" d="M384.4,413c0.1,0,0.1,0,0.2,0c0,0.1,0,0.1,0,0.2c0,0-0.1,0-0.1,0C384.4,413.1,384.4,413,384.4,413z"/>
	<path class="st0" d="M333.3,470.2c0.1,0,0.1,0,0.2,0c0,0.1,0,0.1,0,0.2c0,0-0.1,0-0.1,0C333.3,470.4,333.3,470.3,333.3,470.2z"/>
	<path class="st0" d="M371.3,332.7c-0.1,0-0.1,0-0.2,0c0-0.1,0-0.1,0-0.2c0,0,0.1,0,0.1,0C371.2,332.5,371.2,332.6,371.3,332.7z"/>
	<path class="st0" d="M330.7,473.2c0.1,0,0.1,0.1,0.2,0.1c0,0-0.1,0.1-0.1,0.1c0,0-0.1,0-0.1-0.1
		C330.7,473.3,330.7,473.3,330.7,473.2z"/>
	<path class="st1" d="M284.5,298.1c-0.4-0.3-0.2-0.5,0-0.6c0.4-0.4,0.9-0.6,1.4-0.3c0.3,0.1,0.4,0.5,0.2,0.7
		C285.6,298.3,285,298.1,284.5,298.1z"/>
	<path class="st1" d="M237.5,448.4c0-0.1,0.1-0.1,0.1-0.2c0.2-0.5,0.4-1.1,1.2-0.8c0.4,0.2,0.4,0.5,0.2,0.8
		C238.6,448.7,238.1,449,237.5,448.4C237.5,448.4,237.5,448.4,237.5,448.4z"/>
	<path class="st1" d="M321.8,300.8c-0.3-0.4-0.3-0.7,0-0.9c0.3-0.4,0.7-0.3,1.1,0c0.3,0.3,0.4,0.6,0.1,0.9
		C322.5,301,322.1,300.9,321.8,300.8z"/>
	<path class="st1" d="M290.2,298.9c0.3,0.3,0.7,0.7,0.4,1.1c-0.1,0.2-0.4,0.1-0.5-0.1c-0.2-0.4-0.9-0.7-0.7-1.2
		C289.5,298.4,289.9,298.7,290.2,298.9z"/>
	<path class="st1" d="M270.3,298.7c0.6,0.3,1,0.5,1.4,0.7c0.2,0.1,0.7,0.1,0.6,0.5c-0.1,0.4-0.5,0.2-0.8,0.1
		C271,299.7,270.6,299.4,270.3,298.7z"/>
	<path class="st1" d="M381.8,364.8c0.2,0.2,0.2,0.5,0,0.7c-0.2,0.3-0.6,0.3-0.8,0c-0.2-0.2-0.3-0.5-0.1-0.6
		C381.2,364.6,381.5,364.6,381.8,364.8z"/>
	<path class="st1" d="M319.7,470.3c0.3-0.3,0.7-0.4,1-0.2c0.2,0.1,0.2,0.3,0,0.5c-0.2,0.3-0.6,0.5-0.9,0.3
		C319.6,470.7,319.7,470.5,319.7,470.3z"/>
	<path class="st1" d="M241.9,451.6c-0.2-0.2-0.4-0.4-0.1-0.6c0.3-0.2,0.6-0.1,0.9,0.1c0.2,0.2,0.2,0.4,0,0.6
		C242.4,452,242.2,451.8,241.9,451.6z"/>
	<path class="st1" d="M320,299.8c0.2-0.3,0.5-0.4,0.8-0.2c0.2,0.2,0.3,0.4,0.1,0.6c-0.3,0.2-0.6,0.3-0.9,0
		C319.7,300.1,319.9,299.9,320,299.8z"/>
	<path class="st1" d="M295,471.2c0.2-0.2,0.4-0.4,0.7-0.2c0.3,0.2,0.2,0.4,0.1,0.6c-0.2,0.3-0.4,0.3-0.7,0.1
		C294.8,471.7,294.9,471.4,295,471.2z"/>
	<path class="st1" d="M287.5,296.7c0.2-0.2,0.5-0.3,0.8,0c0.2,0.1,0.2,0.4,0,0.5c-0.2,0.2-0.5,0.4-0.9,0.1
		C287.3,297.2,287.3,297,287.5,296.7z"/>
	<path class="st1" d="M362.4,328.8c-0.2-0.2-0.1-0.5,0-0.7c0.2-0.2,0.4-0.3,0.6,0c0.2,0.3,0.1,0.6-0.1,0.7
		C362.8,329,362.6,329,362.4,328.8z"/>
	<path class="st1" d="M236.1,441.3c0.2,0.2,0.2,0.4,0.1,0.5c-0.2,0.3-0.5,0.2-0.8,0c-0.2-0.1-0.3-0.3-0.2-0.5
		C235.5,441.1,235.8,441.1,236.1,441.3z"/>
	<path class="st1" d="M238.7,446.5c-0.2-0.1-0.2-0.3-0.1-0.5c0.1-0.2,0.3-0.3,0.6-0.1c0.2,0.1,0.2,0.4,0.2,0.6
		C239.2,446.7,239,446.7,238.7,446.5z"/>
	<path class="st1" d="M236.1,319.3c-0.1-0.2-0.2-0.4,0-0.5c0.2-0.1,0.5-0.2,0.7,0c0.2,0.2,0.1,0.4-0.1,0.5
		C236.5,319.6,236.3,319.5,236.1,319.3z"/>
	<path class="st1" d="M243.7,313.9c-0.2,0.5-0.6,0.7-1,0.5c-0.1,0-0.2-0.2-0.1-0.3C242.8,313.7,243.2,313.8,243.7,313.9z"/>
	<path class="st1" d="M359.8,325.3c-0.2-0.2-0.2-0.5,0-0.7c0.2-0.2,0.4-0.1,0.5,0.1c0.2,0.2,0.2,0.4,0,0.6
		C360.2,325.5,360,325.5,359.8,325.3z"/>
	<path class="st1" d="M325.5,302.7c-0.2-0.2-0.2-0.4,0-0.5c0.2-0.2,0.4-0.2,0.6,0c0.2,0.2,0.2,0.4,0,0.5
		C325.9,303,325.7,302.9,325.5,302.7z"/>
	<path class="st1" d="M258.6,460.2c-0.2-0.4-0.2-0.8,0.1-1.1c0,0,0.3,0,0.3,0.1C259.2,459.6,259.1,460,258.6,460.2z"/>
	<path class="st1" d="M240.2,447.7c0.2,0.2,0.2,0.4,0.1,0.5c-0.1,0.2-0.3,0.3-0.5,0.1c-0.2-0.1-0.2-0.3-0.1-0.5
		C239.8,447.7,240,447.6,240.2,447.7z"/>
	<path class="st1" d="M245.7,312c0.1-0.1,0.2-0.2,0.4-0.1c0.2,0.2,0.2,0.4,0,0.5c-0.1,0.1-0.3,0.1-0.4,0.1
		C245.5,312.4,245.5,312.2,245.7,312z"/>
	<path class="st1" d="M327.5,304.2c0.1-0.1,0.2-0.2,0.4-0.1c0.1,0.1,0.2,0.3,0.1,0.4c-0.1,0.1-0.2,0.2-0.4,0.1
		C327.5,304.5,327.4,304.3,327.5,304.2z"/>
	<path class="st1" d="M292.9,471.4c0.1,0.1,0.2,0.3,0.1,0.4c-0.1,0.1-0.2,0.2-0.4,0.1c-0.1-0.1-0.2-0.3-0.1-0.4
		C292.6,471.3,292.8,471.3,292.9,471.4z"/>
	<path class="st1" d="M283.1,297.6c0.2-0.2,0.3-0.2,0.5-0.1c0.1,0.1,0.2,0.3,0,0.4c-0.1,0.1-0.3,0.1-0.4-0.1
		C283,297.8,283.1,297.6,283.1,297.6z"/>
	<path class="st1" d="M209.9,386.3c0.1-0.1,0.3,0,0.4,0.1c0.1,0.1,0.2,0.2,0.1,0.3c-0.1,0.2-0.2,0.1-0.4,0
		C210,386.6,209.9,386.5,209.9,386.3z"/>
	<path class="st1" d="M362.4,326.2c-0.2,0.1-0.3,0.4-0.6,0.2c0,0-0.1-0.2,0-0.2C362,325.9,362.2,326.1,362.4,326.2
		C362.4,326.2,362.4,326.2,362.4,326.2z"/>
	<path class="st1" d="M260.4,462.2c0.1,0,0.1,0,0.2,0c0,0.1,0,0.1,0,0.2c0,0-0.1,0-0.1,0C260.4,462.3,260.4,462.3,260.4,462.2z"/>
	<path class="st1" d="M241.6,449.6c0-0.1,0-0.1,0-0.2c0.1,0,0.1,0,0.2,0.1c0,0,0,0.1,0,0.1C241.7,449.6,241.6,449.6,241.6,449.6z"/>
	<path class="st1" d="M366.5,395.8c0,0.2,0.1,0.3,0.1,0.5C366.6,396.2,366.5,396,366.5,395.8z"/>
</g>
<g>
	<path class="st2" d="M231.2,420.6c-0.6-1.2-0.5-2.5-0.5-3.8c0-33.8,0-67.6-0.1-101.4c0-2.8,1-3.7,3.6-3.6c6.7,0.1,13.4,0.1,20.1,0
		c1.8,0,2.9,0.8,3.9,2.2c12.1,17.2,24.3,34.5,36.4,51.7c1.6,2.2,3.1,4.4,5.2,6.1c-0.5,4.8,0.8,9.4,1,14.1c0.4,8,3.2,16,1,24.1
		c0,0,0-0.1,0-0.1c-0.6,0.1-0.8,0.6-0.8,1.2c0,0,0,0,0,0c-1.6,0.8-2.9-0.3-4.4-0.6c0,0,0,0,0,0c0.2-1-0.1-1.8-1.3-2
		c-6.4-9-12.8-18.1-19.1-27.2c-5.3-7.6-10.4-15.4-15.6-23.1c-1.1-1.6-2.2-3.1-3.9-4c0,0-0.1,0.2-0.1,0.2c0,15.2,0,30.5,0,45.7
		c0,1.2-0.1,2.4-0.2,3.6c-6.2,4.4-12.4,8.9-18.8,13.3C235.8,418.5,234,420.6,231.2,420.6z"/>
	<path class="st3" d="M341,403c0-14.5,0-28.9,0-43.4c0-1.9,0.2-3.8-0.5-5.6c0.3-0.6,0.4-1.3,0.8-1.9c6.7-12.1,14.6-23.4,22.2-34.9
		c1-1.5,2.2-2.9,4.1-3.2c0,0.2,0.1,0.4,0.1,0.6c0,26.5-0.1,52.9,0,79.4c0,7.9-0.4,15.8,0.3,23.6c0,0.3-0.1,0.5-0.1,0.8
		c-1.1,0.1-1.8-0.7-2.7-1.1C356.9,413.2,349.3,407.6,341,403z"/>
	<path class="st4" d="M367.7,314c-2,0.3-3.2,1.7-4.1,3.2c-7.6,11.5-15.5,22.8-22.2,34.9c-0.3,0.6-0.5,1.3-0.8,1.9
		c-0.9,0.2-1.3,0.9-1.7,1.6c-9.9,16-21.3,31-31.6,46.8c-1.7,2.6-3,5.6-5.5,7.7c2.2-8.1-0.6-16.1-1-24.1c-0.2-4.7-1.5-9.3-1-14.1
		c1-1.2,2.1-2.3,3.1-3.5c0.7,1.3,1.7,1.1,2.7,0.4c0.8-0.6,1.5-1.3,2.5-1.6c6.3-1.9,11.7-5.6,17.6-8.3c4.2-1.9,7.7-5.2,12.6-5.5
		c1.6-0.1,1.7-1.2,0.7-2.6c-2.4-3.2-4.9-6.2-7.7-9.1c-2-2.1-3-5.2-6-6.5c3.1-4.8,6.2-9.6,9.3-14.4c0.6-0.9,1.1-1.9,1.6-2.8
		c0.1-0.2,0.2-0.3,0.4-0.5c0.1,0,0.2-0.1,0.2-0.3c0,0,0.2-0.1,0.2-0.1l0-0.2c0.2-0.1,0.3-0.2,0.3-0.4c0.4-0.1,0.6-0.4,0.5-0.8
		c0.1,0,0.2-0.1,0.2-0.2c0.7-0.3,1-0.9,1.1-1.6c0,0,0.1-0.2,0.1-0.2c0.1-0.1,0.2-0.3,0.3-0.4c0.3-0.3,0.6-0.6,0.8-0.8
		c9-0.8,17.9-0.4,26.9-0.3c0.1,0.2,0.3,0.4,0.4,0.5C367.9,313.1,367.8,313.5,367.7,314z"/>
	<path class="st5" d="M341,403c8.2,4.6,15.9,10.1,24.3,14.3c0.9,0.4,1.6,1.2,2.7,1.1c2.9,2.2,6.2,3.6,9.3,5.4
		c3.4,1.9,3.4,2.3,0.3,4.5c-0.4,0.3-0.8,0.6-1.2,0.9c-11,9.9-22,19.8-33,29.7c-0.6,0.5-1.1,1.5-1.9,1.1c-0.7-0.3-0.6-1.2-0.6-1.9
		c0-18.2-0.5-36.4,0.1-54.5C340.9,403.4,341,403.2,341,403z"/>
	<path class="st4" d="M231.2,420.6c2.8,0,4.6-2.2,6.7-3.6c6.3-4.3,12.5-8.8,18.8-13.3c0.1,4.3,0.3,8.6,0.3,12.8c0,13.5,0,27,0,40.4
		c0,1.1,0.2,2.2-0.3,3.2c-1,0.1-1.4-0.7-1.9-1.3c-10.1-9.8-19.8-20-30.6-29.1c-2.2-1.8-1.4-2.7,0.5-3.9
		C227,424.6,229.8,423.5,231.2,420.6z"/>
	<path class="st2" d="M325.6,335.1c2.9,1.3,3.9,4.4,6,6.5c2.7,2.9,5.3,5.9,7.7,9.1c1,1.4,0.9,2.4-0.7,2.6c-4.9,0.3-8.5,3.6-12.6,5.5
		c-5.9,2.7-11.3,6.5-17.6,8.3c-1,0.3-1.7,1-2.5,1.6c-1,0.8-2,0.9-2.7-0.4C310.3,357.2,317.3,345.7,325.6,335.1z"/>
	<path class="st6" d="M367.7,314c0.1-0.5,0.1-0.9,0.2-1.4c1.2,0.7,0.8,2,0.8,3c0,33,0,65.9,0,98.9c0,1.1,0.3,2.2-0.6,3.1
		c-0.7-7.9-0.3-15.8-0.3-23.6c0-26.5,0-52.9,0-79.4C367.9,314.4,367.8,314.2,367.7,314z"/>
	<path class="st6" d="M367.5,312.1c-9-0.1-18-0.5-26.9,0.3c0.4-1.1,1.4-1,2.3-1c7.6,0,15.2,0,22.8,0
		C366.3,311.4,367,311.5,367.5,312.1z"/>
	<path class="st4" d="M296.8,410.5c1.4,0.3,2.8,1.4,4.4,0.6c-0.3,1.2-1,2-2.2,1.8C297.6,412.7,296.9,411.8,296.8,410.5z"/>
	<path class="st6" d="M339.3,313.9c-0.1,0.7-0.4,1.3-1.1,1.6C338.2,314.7,338.3,314,339.3,313.9z"/>
	<path class="st4" d="M295.5,408.5c1.1,0.2,1.4,0.9,1.3,2C295.9,410.1,295.5,409.5,295.5,408.5z"/>
	<path class="st4" d="M301.1,411.1c0-0.6,0.2-1,0.8-1.2C301.9,410.5,301.7,410.9,301.1,411.1z"/>
	<path class="st6" d="M338.1,315.7c0.1,0.4-0.1,0.7-0.5,0.8C337.7,316.2,337.9,316,338.1,315.7z"/>
	<polygon class="st4" points="256.9,354.5 257,354.3 257,354.5 	"/>
	<path class="st6" d="M336.8,317.5c-0.1,0.2-0.2,0.3-0.4,0.5C336.6,317.8,336.7,317.6,336.8,317.5z"/>
	<path class="st6" d="M337.3,316.9l0,0.2c0,0-0.2,0.1-0.2,0.1C337.1,317.1,337.2,317,337.3,316.9z"/>
	<path class="st6" d="M339.8,313.3c-0.1,0.1-0.2,0.3-0.3,0.4C339.5,313.5,339.6,313.4,339.8,313.3z"/>
</g>
<g>
</g>
<g>
</g>
<g>
</g>
<g>
</g>
<g>
</g>
<g>
</g>
</svg>
